# xmcd
#
# Track frame offsets:
#	150
#	20110
#	49978
#	70133
#	93490
#	135645
#
# Disc length: 2125 seconds
#
# Revision: 1
# Processed by: cddbd v1.4PL0 Copyright (c) Steve Scherf et al.
# Submitted via: audiograbber 1.82.01
#
DISCID=53084b06
DTITLE=Tony Kiwan - 3eres El Mawsam
DYEAR=1900
DGENRE=
TTITLE0=3eres El Mawsam
TTITLE1=Baddik Baddik
TTITLE2=Ya Weyl Weyli
TTITLE3=Tkabarit 3layki
TTITLE4=Machi
TTITLE5=Dawayna Chmou3
EXTD=
EXTT0=
EXTT1=
EXTT2=
EXTT3=
EXTT4=
EXTT5=
PLAYORDER=
